ply
format ascii 1.0
comment VCGLIB generated
element vertex 64
property float x
property float y
property float z
property float nx
property float ny
property float nz
element face 124
property list uchar int vertex_indices
property uchar red
property uchar green
property uchar blue
property uchar alpha
end_header
-0.0001 1.9062 -1.9059 -3.504039e-06 0.7279149 -0.6856675 
-0.0001 1.9058 1.9062 -3.515862e-06 0.7276508 0.6859477 
0.3718 1.8691 1.9062 0.141974 0.7133479 0.6862785 
0.3718 1.8696 -1.9059 0.1419782 0.7140821 -0.6855136 
0.7294 1.7607 1.9061 0.2785742 0.6724347 0.6857318 
0.7294 1.7611 -1.906 0.2783075 0.6721009 -0.6861672 
1.0589 1.5845 1.9061 0.4044093 0.6051399 0.6857542 
1.0589 1.585 -1.906 0.4044208 0.6052648 -0.6856371 
1.3477 1.3475 1.9061 0.5146164 0.5145664 0.685851 
1.3477 1.3479 -1.906 0.5146888 0.5146882 -0.6857051 
1.5848 1.0586 1.9061 0.6048696 0.4040394 0.6862106 
1.5848 1.0591 -1.906 0.6052995 0.404568 -0.6855196 
1.7609 0.7291 1.906 0.6724384 0.2784795 0.6857665 
1.7609 0.7296 -1.9061 0.6720148 0.2784622 -0.6861888 
1.8694 0.3716 1.906 0.7134681 0.1418456 0.6861802 
1.8694 0.372 -1.9061 0.713913 0.1420954 -0.6856655 
1.906 -0.0003 1.9059 0.7278756 -0.000102604 0.6857092 
1.906 0.0002 -1.9062 0.7274054 0.0001010924 -0.686208 
1.8694 -0.3721 1.9059 0.713441 -0.1420075 0.6861748 
1.8694 -0.3717 -1.9062 0.7139274 -0.1419083 -0.6856893 
1.7609 -0.7297 1.9058 0.6724736 -0.2786266 0.6856723 
1.7609 -0.7293 -1.9063 0.672057 -0.2782807 -0.6862211 
1.5848 -1.0592 1.9058 0.6052437 -0.4043989 0.6856688 
1.5848 -1.0588 -1.9063 0.6052077 -0.4043512 -0.6857285 
1.3477 -1.3481 1.9058 0.5145833 -0.51468 0.6857904 
1.3477 -1.3476 -1.9063 0.5150416 -0.5149207 -0.6852655 
1.0589 -1.5851 1.9057 0.4046392 -0.6056316 0.6851844 
1.0589 -1.5847 -1.9064 0.4044062 -0.605052 -0.6858336 
0.7294 -1.7613 1.9057 0.2785566 -0.6725941 0.6855826 
0.7294 -1.7608 -1.9064 0.2785319 -0.6724358 -0.6857479 
0.3718 -1.8697 1.9057 0.1419162 -0.7139466 0.6856675 
0.3718 -1.8693 -1.9064 0.1420001 -0.7138355 -0.6857659 
-0.0001 -1.9063 1.9057 -9.53023e-06 -0.7279108 0.6856719 
-0.0001 -1.9059 -1.9064 -9.529168e-06 -0.7278391 -0.685748 
-0.3719 -1.8697 1.9057 -0.1419186 -0.7139395 0.6856745 
-0.3719 -1.8693 -1.9064 -0.1419967 -0.7138741 -0.6857264 
-0.7295 -1.7613 1.9057 -0.2785652 -0.6725954 0.6855778 
-0.7295 -1.7608 -1.9064 -0.2785421 -0.6724315 -0.685748 
-1.059 -1.5851 1.9057 -0.4046311 -0.6056374 0.6851839 
-1.059 -1.5847 -1.9064 -0.4044318 -0.6051034 -0.6857733 
-1.3478 -1.3481 1.9058 -0.5145891 -0.5146737 0.6857909 
-1.3478 -1.3476 -1.9063 -0.5150471 -0.5149141 -0.6852663 
-1.5849 -1.0592 1.9058 -0.6052438 -0.4044036 0.6856659 
-1.5849 -1.0588 -1.9063 -0.6052399 -0.404363 -0.6856934 
-1.761 -0.7297 1.9058 -0.6724839 -0.2786325 0.6856598 
-1.761 -0.7293 -1.9063 -0.672057 -0.2782807 -0.6862211 
-1.8695 -0.3721 1.9059 -0.7134405 -0.1420078 0.6861752 
-1.8695 -0.3717 -1.9062 -0.7139191 -0.1419059 -0.6856984 
-1.9061 -0.0003 1.9059 -0.7278748 -0.0001025795 0.6857101 
-1.9061 0.0002 -1.9062 -0.7274044 0.0001010784 -0.6862091 
-1.8695 0.3716 1.906 -0.7134686 0.1418479 0.6861791 
-1.8695 0.372 -1.9061 -0.7139021 0.1421029 -0.6856754 
-1.761 0.7291 1.906 -0.6724566 0.278437 0.685766 
-1.761 0.7296 -1.9061 -0.6720158 0.2784576 -0.6861896 
-1.5849 1.0587 1.9061 -0.6048862 0.4040696 0.6861782 
-1.5849 1.0591 -1.906 -0.6052128 0.4045328 -0.685617 
-1.3478 1.3475 1.9061 -0.5145596 0.5146037 0.6858655 
-1.3478 1.3479 -1.906 -0.5146832 0.5146946 -0.6857045 
-1.059 1.5845 1.9061 -0.4044174 0.6051339 0.6857548 
-1.059 1.585 -1.906 -0.404366 0.6051601 -0.6857619 
-0.7295 1.7607 1.9061 -0.2785626 0.6724454 0.685726 
-0.7295 1.7611 -1.906 -0.2782972 0.6721053 -0.686167 
-0.3719 1.8691 1.9062 -0.1419944 0.713341 0.6862815 
-0.3719 1.8696 -1.9059 -0.1420098 0.714 -0.6855927 
3 0 1 2 204 204 204 255 
3 0 2 3 204 204 204 255 
3 3 2 4 204 204 204 255 
3 3 4 5 204 204 204 255 
3 5 4 6 204 204 204 255 
3 5 6 7 204 204 204 255 
3 7 6 8 204 204 204 255 
3 7 8 9 204 204 204 255 
3 9 8 10 204 204 204 255 
3 9 10 11 204 204 204 255 
3 11 10 12 204 204 204 255 
3 11 12 13 204 204 204 255 
3 13 12 14 204 204 204 255 
3 13 14 15 204 204 204 255 
3 15 14 16 204 204 204 255 
3 15 16 17 204 204 204 255 
3 17 16 18 204 204 204 255 
3 17 18 19 204 204 204 255 
3 19 18 20 204 204 204 255 
3 19 20 21 204 204 204 255 
3 21 20 22 204 204 204 255 
3 21 22 23 204 204 204 255 
3 23 22 24 204 204 204 255 
3 23 24 25 204 204 204 255 
3 25 24 26 204 204 204 255 
3 25 26 27 204 204 204 255 
3 27 26 28 204 204 204 255 
3 27 28 29 204 204 204 255 
3 29 28 30 204 204 204 255 
3 29 30 31 204 204 204 255 
3 31 30 32 204 204 204 255 
3 31 32 33 204 204 204 255 
3 33 32 34 204 204 204 255 
3 33 34 35 204 204 204 255 
3 35 34 36 204 204 204 255 
3 35 36 37 204 204 204 255 
3 37 36 38 204 204 204 255 
3 37 38 39 204 204 204 255 
3 39 38 40 204 204 204 255 
3 39 40 41 204 204 204 255 
3 41 40 42 204 204 204 255 
3 41 42 43 204 204 204 255 
3 43 42 44 204 204 204 255 
3 43 44 45 204 204 204 255 
3 45 44 46 204 204 204 255 
3 45 46 47 204 204 204 255 
3 47 46 48 204 204 204 255 
3 47 48 49 204 204 204 255 
3 49 48 50 204 204 204 255 
3 49 50 51 204 204 204 255 
3 51 50 52 204 204 204 255 
3 51 52 53 204 204 204 255 
3 53 52 54 204 204 204 255 
3 53 54 55 204 204 204 255 
3 55 54 56 204 204 204 255 
3 55 56 57 204 204 204 255 
3 57 56 58 204 204 204 255 
3 57 58 59 204 204 204 255 
3 59 58 60 204 204 204 255 
3 59 60 61 204 204 204 255 
3 4 2 1 204 204 204 255 
3 1 62 60 204 204 204 255 
3 60 58 56 204 204 204 255 
3 56 54 52 204 204 204 255 
3 52 50 48 204 204 204 255 
3 48 46 44 204 204 204 255 
3 44 42 40 204 204 204 255 
3 40 38 36 204 204 204 255 
3 36 34 32 204 204 204 255 
3 32 30 28 204 204 204 255 
3 28 26 24 204 204 204 255 
3 24 22 20 204 204 204 255 
3 20 18 16 204 204 204 255 
3 16 14 12 204 204 204 255 
3 12 10 8 204 204 204 255 
3 8 6 4 204 204 204 255 
3 4 1 60 204 204 204 255 
3 60 56 52 204 204 204 255 
3 52 48 44 204 204 204 255 
3 44 40 36 204 204 204 255 
3 36 32 28 204 204 204 255 
3 28 24 20 204 204 204 255 
3 20 16 12 204 204 204 255 
3 12 8 4 204 204 204 255 
3 4 60 52 204 204 204 255 
3 52 44 36 204 204 204 255 
3 36 28 20 204 204 204 255 
3 20 12 4 204 204 204 255 
3 4 52 36 204 204 204 255 
3 36 20 4 204 204 204 255 
3 61 60 62 204 204 204 255 
3 61 62 63 204 204 204 255 
3 63 62 1 204 204 204 255 
3 63 1 0 204 204 204 255 
3 63 0 3 204 204 204 255 
3 3 5 7 204 204 204 255 
3 7 9 11 204 204 204 255 
3 11 13 15 204 204 204 255 
3 15 17 19 204 204 204 255 
3 19 21 23 204 204 204 255 
3 23 25 27 204 204 204 255 
3 27 29 31 204 204 204 255 
3 31 33 35 204 204 204 255 
3 35 37 39 204 204 204 255 
3 39 41 43 204 204 204 255 
3 43 45 47 204 204 204 255 
3 47 49 51 204 204 204 255 
3 51 53 55 204 204 204 255 
3 55 57 59 204 204 204 255 
3 59 61 63 204 204 204 255 
3 63 3 7 204 204 204 255 
3 7 11 15 204 204 204 255 
3 15 19 23 204 204 204 255 
3 23 27 31 204 204 204 255 
3 31 35 39 204 204 204 255 
3 39 43 47 204 204 204 255 
3 47 51 55 204 204 204 255 
3 55 59 63 204 204 204 255 
3 63 7 15 204 204 204 255 
3 15 23 31 204 204 204 255 
3 31 39 47 204 204 204 255 
3 47 55 63 204 204 204 255 
3 63 15 31 204 204 204 255 
3 31 47 63 204 204 204 255 
